<svg width="240" height="32" viewBox="0 0 240 32" fill="none" xmlns="http://www.w3.org/2000/svg">
<path d="M113.795 14.4452H113.759L113.795 15.3285C113.795 15.4389 113.795 15.5309 113.795 15.6413C113.795 18.5856 112.949 21.0698 111.293 22.9836C109.563 25.0077 107.244 25.983 104.245 25.983C101.245 25.983 98.9085 24.9893 97.0683 22.9652C95.3385 21.0514 94.4553 18.5856 94.4553 15.6413C94.4553 12.6971 95.3385 10.2313 97.0683 8.31751C98.9269 6.27493 101.282 5.29965 104.245 5.29965C107.208 5.29965 108.22 5.8333 109.692 6.86379L111.09 7.83907L109.747 1.2145L109.453 1.06729C109.361 1.03049 107.281 0.0368042 103.95 0.0368042C100.62 0.0368042 95.541 1.56413 92.7255 4.60039C90.0205 7.56304 88.6404 11.2986 88.6404 15.6413C88.6404 19.9841 90.0205 23.7196 92.7255 26.7007C95.5226 29.7369 99.2029 31.2643 103.638 31.2643C108.072 31.2643 111.109 29.9578 113.556 27.3999V30.8042H119.353V0.496843H113.795V14.4452Z" fill="white"/>
<path d="M58.4249 17.8312C58.4249 20.2602 57.6337 22.1923 56.0327 23.7197C54.4134 25.2286 52.4996 25.9647 50.1626 25.9647C47.8256 25.9647 46.0959 25.247 44.679 23.7933C43.262 22.3396 42.5628 20.3522 42.5628 17.8864V0.496887H36.7663V18.0336C36.7663 22.0635 38.0728 25.3574 40.6306 27.8232C41.7715 28.9641 43.0964 29.8474 44.6054 30.4178C46.0959 30.9883 47.8992 31.2643 49.9418 31.2643C51.9844 31.2643 53.935 30.7491 55.5727 29.7186C56.6216 29.0561 57.5785 28.2833 58.4249 27.4184V30.8043H64.2214V0.496887H58.4249V17.8496V17.8312Z" fill="white"/>
<path d="M81.8686 1.47214C79.6052 2.50263 77.8755 3.91955 76.6794 5.7229V0.938494H70.8829V31.2459H76.6794V17.8311C76.6794 14.6661 77.581 11.9242 79.366 9.66084C81.2614 7.30544 83.6352 6.14614 86.6346 6.14614H87.8491V0.478455H86.8738C84.9233 0.478455 83.2303 0.809683 81.8502 1.47214H81.8686Z" fill="white"/>
<path d="M25.1549 14.4452H25.1181L25.1549 15.3285C25.1549 15.4389 25.1549 15.5309 25.1549 15.6413C25.1549 18.5856 24.3085 21.0698 22.6523 22.9836C20.9226 25.0077 18.604 25.983 15.6045 25.983C12.6051 25.983 10.2681 24.9893 8.42792 22.9652C6.69817 21.0514 5.8149 18.5856 5.8149 15.6413C5.8149 12.6971 6.69817 10.2313 8.42792 8.31751C10.2865 6.27493 12.6419 5.29965 15.6045 5.29965C18.5672 5.29965 19.5793 5.8333 21.0514 6.86379L22.4499 7.83907L21.1066 1.2145L20.8122 1.06729C20.7202 1.03049 18.6408 0.0368042 15.3101 0.0368042C11.9794 0.0368042 6.90059 1.56413 4.08515 4.60039C1.38012 7.56304 0 11.2986 0 15.6413C0 19.9841 1.38012 23.7196 4.08515 26.7007C6.88219 29.7369 10.5625 31.2643 14.9973 31.2643C19.4321 31.2643 22.4683 29.9578 24.9157 27.3999V30.8042H30.7122V0.496843H25.1549V14.4452Z" fill="white"/>
<path d="M146.679 20.7754C146.053 22.3027 145.06 23.5724 143.716 24.5477C142.373 25.5046 140.827 25.983 139.079 25.983C135.785 25.983 133.283 24.9893 131.406 22.9468C129.602 20.9962 128.682 18.5304 128.682 15.6229C128.682 12.7155 129.602 10.2497 131.406 8.29911C132.252 7.36063 133.301 6.62456 134.516 6.09092C135.748 5.55727 137.276 5.28125 139.061 5.28125C140.846 5.28125 142.355 5.75969 143.698 6.71657C145.041 7.67345 146.035 8.94316 146.661 10.4889L147.047 11.4458L151.132 7.28702L151.077 6.95579C151.04 6.67977 150.672 5.18924 147.507 2.79704C144.876 0.93848 141.711 0 138.122 0C134.534 0 129.878 1.52733 127.026 4.56359C124.284 7.48944 122.886 11.2066 122.886 15.6229C122.886 20.0393 124.284 23.738 127.026 26.6823C129.878 29.7185 133.595 31.2459 138.122 31.2459C142.649 31.2459 144.876 30.3074 147.525 28.4488C150.046 26.6271 151.795 24.1981 152.733 21.217L153.009 20.3521H146.826L146.661 20.7754H146.679Z" fill="white"/>
<path d="M202.969 1.47214C200.706 2.50263 198.976 3.91955 197.78 5.7229V0.938494H191.984V31.2459H197.78V17.8311C197.78 14.6661 198.682 11.9242 200.467 9.66084C202.362 7.30544 204.736 6.14614 207.735 6.14614H208.95V0.478455H207.975C206.024 0.478455 204.331 0.809683 202.951 1.47214H202.969Z" fill="white"/>
<path d="M180.391 14.4452H180.354L180.391 15.3285C180.391 15.4389 180.391 15.5309 180.391 15.6413C180.391 18.5856 179.544 21.0698 177.888 22.9836C176.158 25.0077 173.84 25.983 170.84 25.983C167.841 25.983 165.504 24.9893 163.664 22.9652C161.934 21.0514 161.051 18.5856 161.051 15.6413C161.051 12.6971 161.934 10.2313 163.664 8.31751C165.522 6.27493 167.877 5.29965 170.84 5.29965C173.803 5.29965 174.815 5.8333 176.287 6.86379L177.686 7.83907L176.342 1.2145L176.048 1.06729C175.956 1.03049 173.876 0.0368042 170.546 0.0368042C167.215 0.0368042 162.136 1.56413 159.321 4.60039C156.616 7.56304 155.236 11.2986 155.236 15.6413C155.236 19.9841 156.616 23.7196 159.321 26.7007C162.118 29.7369 165.798 31.2643 170.233 31.2643C174.668 31.2643 177.704 29.9578 180.151 27.3999V30.8042H185.948V0.496843H180.391V14.4452Z" fill="white"/>
<path d="M239.662 15.6414C239.662 11.2066 238.282 7.48947 235.577 4.58202C232.688 1.56416 228.897 0.0184326 224.315 0.0184326C219.733 0.0184326 215.924 1.54576 213.053 4.58202C210.348 7.47107 208.968 11.1882 208.968 15.6414C208.968 20.0945 210.404 23.7749 213.237 26.7007C216.163 29.7186 219.991 31.2459 224.628 31.2459C229.265 31.2459 229.707 30.5834 229.78 30.5466L230.13 30.4178L231.308 23.6276L229.983 24.5293C228.566 25.4862 226.781 25.983 224.683 25.983C222.585 25.983 219.715 25.1734 217.93 23.4988C216.476 22.1371 215.464 20.205 215.041 18.0336H239.68V15.623L239.662 15.6414ZM217.911 7.61828C219.623 6.07255 221.776 5.29968 224.315 5.29968C226.855 5.29968 228.971 6.05415 230.719 7.61828C232.154 8.92479 233.111 10.6361 233.571 12.6603H215.078C215.538 10.6177 216.476 8.92479 217.911 7.61828Z" fill="white"/>
</svg>

